HIERARCHY
ROOT Hips
{
	OFFSET 0.00000 0.00000 0.00000
	CHANNELS 6 Xposition Yposition Zposition Zrotation Yrotation Xrotation 
	JOINT LHipJoint
	{
		OFFSET 0 0 0
		CHANNELS 3 Zrotation Yrotation Xrotation
		JOINT LeftHip
		{
			OFFSET 1.64549 -1.70879 0.84566
			CHANNELS 3 Zrotation Yrotation Xrotation
			JOINT LeftKnee
			{
				OFFSET 2.24963 -6.18082 0.00000
				CHANNELS 3 Zrotation Yrotation Xrotation
				JOINT LeftAnkle
				{
					OFFSET 2.71775 -7.46697 0.00000
					CHANNELS 3 Zrotation Yrotation Xrotation
					JOINT LeftToe
					{
						OFFSET 0.18768 -0.51564 2.24737
						CHANNELS 3 Zrotation Yrotation Xrotation
						End Site
						{
							OFFSET 0.00000 -0.00000 1.15935
						}
					}
				}
			}
		}
	}
	JOINT RHipJoint
	{
		OFFSET 0 0 0
		CHANNELS 3 Zrotation Yrotation Xrotation
		JOINT RightHip
		{
			OFFSET -1.58830 -1.70879 0.84566
			CHANNELS 3 Zrotation Yrotation Xrotation
			JOINT RightKnee
			{
				OFFSET -2.25006 -6.18201 0.00000
				CHANNELS 3 Zrotation Yrotation Xrotation
				JOINT RightAnkle
				{
					OFFSET -2.72829 -7.49593 0.00000
					CHANNELS 3 Zrotation Yrotation Xrotation
					JOINT RightToe
					{
						OFFSET -0.21541 -0.59185 2.10643
						CHANNELS 3 Zrotation Yrotation Xrotation
						End Site
						{
							OFFSET -0.00000 -0.00000 1.09838
						}
					}
				}
			}
		}
	}
	JOINT lowerback
	{
		OFFSET 0 0 0
		CHANNELS 3 Zrotation Yrotation Xrotation
		JOINT Chest
		{
			OFFSET 0.03142 2.10496 -0.11038
			CHANNELS 3 Zrotation Yrotation Xrotation
			JOINT Chest2
			{
				OFFSET -0.01863 2.10897 -0.06956
				CHANNELS 3 Zrotation Yrotation Xrotation
				JOINT lowerneck
				{
					OFFSET 0 0 0
					CHANNELS 3 Zrotation Yrotation Xrotation
					JOINT Neck
					{
						OFFSET -0.02267 1.73238 0.00451
						CHANNELS 3 Zrotation Yrotation Xrotation
						JOINT Head
						{
							OFFSET -0.05808 1.54724 -0.61749
							CHANNELS 3 Zrotation Yrotation Xrotation
							End Site
							{
								OFFSET -0.01396 1.71468 -0.21082
							}
						}
					}
				}
				JOINT LeftCollar
				{
					OFFSET 0 0 0
					CHANNELS 3 Zrotation Yrotation Xrotation
					JOINT LeftShoulder
					{
						OFFSET 3.44898 0.50298 0.21920
CHANNELS 3 Zrotation Xrotation Yrotation
						JOINT LeftElbow
						{
OFFSET 0 -5.419170 -0.000000
CHANNELS 3 Zrotation Xrotation Yrotation
							JOINT LeftWrist
							{
OFFSET 0 -2.443730 0.000000
CHANNELS 3 Zrotation Xrotation Yrotation
								JOINT lhand
								{
									OFFSET 0 0 0
CHANNELS 3 Zrotation Xrotation Yrotation
									JOINT LFingers
									{
OFFSET 0 -0.727500 0.000000
CHANNELS 3 Zrotation Xrotation Yrotation
										End Site
										{
OFFSET 0 -0.586530 0.000000
										}
									}
								}
								JOINT LThumb
								{
OFFSET 0 0.000000 0.000000
CHANNELS 3 Zrotation Xrotation Yrotation
									End Site
									{
OFFSET 0 -0.595490 0.595490
									}
								}
							}
						}
					}
				}
				JOINT RightCollar
				{
					OFFSET 0 0 0
					CHANNELS 3 Zrotation Yrotation Xrotation
					JOINT RightShoulder
					{
						OFFSET -3.23015 0.55830 0.31051
CHANNELS 3 Zrotation Xrotation Yrotation
						JOINT RightElbow
						{
OFFSET 0 -5.589760 0.000140
CHANNELS 3 Zrotation Xrotation Yrotation
							JOINT RightWrist
							{
OFFSET 0 -2.480600 0.000000
CHANNELS 3 Zrotation Xrotation Yrotation
								JOINT rhand
								{
									OFFSET 0 0 0
CHANNELS 3 Zrotation Xrotation Yrotation
									JOINT RFingers
									{
OFFSET 0 -0.816010 0.000000
CHANNELS 3 Zrotation Xrotation Yrotation
										End Site
										{
OFFSET 0 -0.657890 0.000000
										}
									}
								}
								JOINT RThumb
								{
OFFSET 0 0.000000 0.000000
CHANNELS 3 Zrotation Xrotation Yrotation
									End Site
									{
OFFSET 0 -0.667930 0.667930
									}
								}
							}
						}
					}
				}
			}
		}
	}
}
MOTION
Frames: 5
Frame Time: 0.008333333333333333
2.702300 17.038600 26.109100 176.763000 -59.198700 -158.376000 0.000000 0.000000 0.000000 -7.158800 -10.180300 -14.750000 2.471300 9.785600 28.285100 9.406400 3.500700 -59.799300 4.156700 12.366100 37.039700 0.000000 0.000000 0.000000 19.276600 15.496000 -38.677200 -4.562600 -12.873700 38.897400 0.852000 -17.581800 -14.214200 -0.209100 2.944400 -8.123900 -5.542500 0.930200 -7.337400 -2.094300 0.636600 -9.651900 0.944000 0.303900 -6.078200 -8.644700 -8.493600 -17.571700 5.215800 -11.596400 25.596300 1.472600 -5.591100 12.175300 -0.000000 0.000000 0.000000 76.915600 4.007500 29.768500 9.184700 -15.454300 1.248900 -0.743800 53.760500 -29.299600 0.000000 0.000000 0.000000 -7.125000 0.000000 0.000000 -33.822400 55.868200 9.818900 -0.000000 0.000000 0.000000 -56.554200 -19.114900 -110.508200 -6.159200 -10.527400 -0.568000 -6.745300 104.322900 -4.970400 0.000000 0.000000 0.000000 7.125000 0.000000 -0.000000 14.816100 24.952500 7.421500
2.718552 17.219737 25.978689 175.992750 -58.735171 -157.774180 0.000000 0.000000 0.000000 -9.144116 -10.125535 -15.174229 2.460761 9.766196 28.222850 8.776706 4.362455 -57.939864 4.001468 12.162309 36.308750 0.000000 0.000000 0.000000 19.342396 15.291027 -37.354773 -4.117391 -12.314628 36.854759 0.997185 -17.810905 -11.032337 -0.438698 4.246931 -11.772740 -6.140380 0.631457 -7.797679 -1.878787 0.335986 -9.342125 1.501890 0.189150 -5.484063 -8.229927 -8.117931 -17.779825 4.830084 -11.038116 25.599649 1.356274 -5.344265 12.117876 0.000000 0.000000 0.000000 76.640299 5.090972 29.862959 9.195042 -15.470749 1.251658 -0.466727 53.687218 -29.278423 0.000000 0.000000 0.000000 -7.125000 0.000000 0.000000 -33.544637 55.905728 9.756059 0.000000 0.000000 0.000000 -57.772910 -19.591431 -113.664257 -6.237703 -10.658008 -0.582381 -7.212966 106.704077 -6.195413 0.000000 0.000000 0.000000 7.125000 0.000000 0.000000 14.346168 23.753785 7.583233
2.743631 17.384870 25.840616 176.078965 -58.352244 -158.029796 0.000000 0.000000 0.000000 -10.584222 -9.628765 -15.864127 2.498331 9.834863 28.443534 8.019075 5.385318 -55.665193 3.873297 11.989847 35.696231 0.000000 0.000000 0.000000 19.937300 14.902830 -36.098399 -3.718158 -11.775052 34.941606 1.025007 -17.613620 -7.672585 -0.648314 5.148096 -14.332035 -6.315264 0.586065 -7.870754 -1.781997 0.306084 -9.231287 1.700607 0.186333 -5.326501 -7.737752 -7.972333 -17.707635 4.536804 -10.934933 25.809209 1.187863 -5.296852 12.124275 0.000000 0.000000 0.000000 76.751427 5.639615 29.556053 9.157954 -15.411736 1.241710 -0.201292 53.672521 -29.214665 0.000000 0.000000 0.000000 -7.125000 0.000000 0.000000 -33.242916 55.905330 9.653061 0.000000 0.000000 0.000000 -58.550098 -19.296270 -116.184220 -6.349668 -10.844193 -0.603357 -7.198276 108.379615 -7.261452 0.000000 0.000000 0.000000 7.125000 0.000000 0.000000 14.254226 22.713076 7.884639
2.768942 17.559017 25.692493 176.207095 -58.139684 -158.492544 0.000000 0.000000 0.000000 -11.926789 -8.751867 -16.529683 2.525474 9.883982 28.601947 6.748959 8.331890 -52.178497 3.509680 11.476866 33.906596 0.000000 0.000000 0.000000 20.444144 15.192752 -34.473492 -3.365378 -11.263567 33.174844 1.127022 -18.465973 -5.300908 -0.416064 4.133959 -11.454776 -6.264823 0.795838 -7.392759 -2.001120 0.509463 -9.434646 1.442750 0.286090 -5.827819 -6.927343 -7.992828 -16.955493 4.187087 -11.242733 26.088522 0.901952 -5.439025 12.024806 0.000000 0.000000 0.000000 77.384582 5.617044 27.877196 9.111632 -15.338090 1.229463 0.029679 53.045287 -28.977597 0.000000 0.000000 0.000000 -7.125000 0.000000 0.000000 -32.835019 55.752417 9.388060 0.000000 0.000000 0.000000 -58.545048 -17.771816 -114.654616 -6.343169 -10.833284 -0.602090 -6.862803 106.170952 -7.529289 0.000000 0.000000 0.000000 7.125000 0.000000 0.000000 14.469227 22.458139 8.099018
2.796981 17.724621 25.558344 175.777826 -57.786479 -158.436928 0.000000 0.000000 0.000000 -13.610367 -8.310897 -17.119058 2.568432 9.961204 28.851124 5.598218 10.368662 -48.754150 3.215806 11.035678 32.401026 0.000000 0.000000 0.000000 20.656684 14.956611 -33.394035 -3.082368 -10.826456 31.697697 1.180299 -19.235956 -2.925540 -0.142474 2.393638 -6.597097 -6.424333 0.996600 -6.977504 -2.308044 0.712155 -9.561981 1.206416 0.390805 -6.218543 -6.912264 -7.954806 -16.586530 4.600628 -11.468220 26.674551 1.015774 -5.514789 12.224434 0.000000 0.000000 0.000000 77.978804 5.519330 26.285537 9.028575 -15.205934 1.207564 0.058246 52.250152 -28.533582 0.000000 0.000000 0.000000 -7.125000 0.000000 0.000000 -32.458850 55.384090 8.960358 0.000000 0.000000 0.000000 -58.584492 -16.520820 -113.773400 -6.319954 -10.794716 -0.597676 -6.759119 104.246158 -7.282491 0.000000 0.000000 0.000000 7.125000 0.000000 0.000000 14.566535 22.700621 8.073172
